<?xml version="1.0" standalone="no"?>
<!DOCTYPE svg PUBLIC "-//W3C//DTD SVG 20010904//EN"
 "http://www.w3.org/TR/2001/REC-SVG-20010904/DTD/svg10.dtd">
<svg version="1.0" xmlns="http://www.w3.org/2000/svg"
 width="512.000000pt" height="512.000000pt" viewBox="0 0 512.000000 512.000000"
 preserveAspectRatio="xMidYMid meet">

<g transform="translate(0.000000,512.000000) scale(0.100000,-0.100000)"
fill="#000000" stroke="none">
<path d="M3765 3911 c-90 -23 -173 -90 -215 -176 l-25 -50 -3 -721 -3 -722
-162 -4 c-147 -4 -167 -6 -212 -28 -64 -31 -124 -91 -155 -155 -24 -48 -25
-59 -30 -322 -5 -254 -6 -273 -26 -299 -39 -53 -71 -69 -134 -69 -63 0 -95 16
-134 69 -21 27 -21 39 -26 779 l-5 752 -27 51 c-40 76 -70 107 -140 145 l-63
34 -325 0 -325 0 -50 -25 c-117 -58 -175 -152 -183 -297 -2 -51 -6 -93 -8 -93
-1 0 -89 27 -196 61 -197 61 -364 106 -498 133 -181 36 -485 66 -673 66 -91 0
-100 -2 -122 -25 l-25 -24 0 -751 0 -751 25 -24 24 -25 371 0 c230 0 370 -4
370 -10 0 -5 27 -38 60 -73 194 -208 506 -208 700 0 33 35 60 68 60 73 0 4
107 10 238 12 l237 3 63 34 c70 38 100 69 140 145 l27 51 3 415 c2 298 0 427
-9 458 -14 52 -75 123 -126 148 -31 15 -72 20 -233 25 -107 3 -212 10 -233 14
l-39 8 4 98 c3 105 13 130 72 173 26 20 40 21 326 21 286 0 300 -1 326 -21 15
-11 37 -33 48 -48 21 -27 21 -39 26 -779 l5 -752 34 -63 c38 -70 70 -101 145
-140 43 -22 64 -26 136 -26 72 0 93 4 136 26 75 39 107 70 145 140 l34 63 5
272 c5 254 6 273 26 299 47 64 62 69 225 72 l149 3 0 -240 0 -241 -55 0 c-46
0 -60 -4 -80 -25 -24 -23 -25 -28 -25 -175 0 -147 1 -152 25 -175 l24 -25 831
0 831 0 24 25 c24 23 25 28 25 175 0 147 -1 152 -25 175 -20 21 -34 25 -79 25
l-56 0 -2 1043 -3 1042 -27 51 c-40 76 -70 107 -140 145 l-63 34 -465 2 c-256
1 -478 -2 -495 -6z m961 -177 c15 -11 37 -33 48 -48 21 -27 21 -35 24 -1057
l2 -1029 -560 0 -560 0 0 1014 c0 695 3 1024 11 1043 6 15 20 39 32 52 47 50
50 51 529 48 434 -2 447 -3 474 -23z m-4182 -880 c191 -21 555 -100 613 -133
9 -4 -21 -14 -74 -24 -198 -39 -312 -48 -615 -54 l-308 -6 0 123 0 122 128 -6
c70 -4 185 -14 256 -22z m950 -234 c25 -9 26 -13 26 -90 0 -73 3 -83 25 -105
15 -16 36 -25 55 -25 19 0 40 9 55 25 22 21 25 33 25 91 0 64 1 66 23 60 12
-4 109 -10 216 -13 186 -6 196 -7 218 -29 32 -32 30 -62 -4 -70 -128 -29 -186
-57 -261 -128 -62 -58 -112 -138 -112 -179 0 -16 10 -38 25 -52 24 -25 27 -25
200 -25 l176 0 -3 -189 c-3 -207 -6 -216 -72 -265 -25 -19 -44 -21 -220 -24
l-192 -3 4 59 c19 261 -211 502 -478 502 -267 0 -497 -241 -478 -502 l4 -58
-283 0 -283 0 0 40 0 40 175 0 c173 0 176 0 200 25 33 32 33 78 0 110 -24 25
-27 25 -200 25 l-175 0 0 320 0 320 229 0 c414 0 730 40 966 123 79 28 103 31
139 17z m663 -376 c-3 -3 -38 -4 -78 -2 l-74 3 35 19 c19 11 53 25 75 31 l40
12 3 -29 c2 -17 1 -32 -1 -34z m-806 -285 c67 -36 98 -68 137 -143 22 -43 26
-64 26 -136 1 -78 -2 -90 -33 -148 -38 -70 -70 -100 -145 -140 -43 -22 -64
-26 -136 -26 -72 0 -93 4 -136 26 -75 40 -107 70 -145 140 -31 58 -34 70 -33
148 0 100 24 160 89 225 100 100 249 121 376 54z m3609 -559 l0 -40 -720 0
-720 0 0 40 0 40 720 0 720 0 0 -40z"/>
<path d="M4063 3057 c-195 -195 -223 -226 -223 -254 0 -49 27 -70 135 -106
l100 -34 5 -152 c5 -146 6 -154 29 -172 13 -10 37 -19 54 -19 28 0 59 28 254
223 195 195 223 226 223 254 0 49 -27 70 -135 106 l-100 34 -5 152 c-5 146 -6
154 -29 172 -13 10 -37 19 -54 19 -28 0 -59 -28 -254 -223z m197 -232 c9 -8
46 -25 83 -38 l67 -22 -85 -85 -85 -85 0 75 c0 97 -11 113 -100 142 l-70 22
82 83 83 84 5 -80 c3 -53 10 -86 20 -96z"/>
<path d="M1145 1895 c-21 -20 -25 -34 -25 -80 l0 -55 -55 0 c-67 0 -105 -29
-105 -80 0 -51 38 -80 105 -80 l55 0 0 -55 c0 -67 29 -105 80 -105 51 0 80 38
80 105 l0 55 55 0 c67 0 105 29 105 80 0 51 -38 80 -105 80 l-55 0 0 55 c0 67
-29 105 -80 105 -19 0 -40 -9 -55 -25z"/>
</g>
</svg>
