<?xml version="1.0" standalone="no"?>
<!DOCTYPE svg PUBLIC "-//W3C//DTD SVG 20010904//EN"
 "http://www.w3.org/TR/2001/REC-SVG-20010904/DTD/svg10.dtd">
<svg version="1.0" xmlns="http://www.w3.org/2000/svg"
 width="512.000000pt" height="512.000000pt" viewBox="0 0 512.000000 512.000000"
 preserveAspectRatio="xMidYMid meet">

<g transform="translate(0.000000,512.000000) scale(0.100000,-0.100000)"
fill="#000000" stroke="none">
<path d="M2360 5110 c-348 -43 -663 -173 -935 -385 -521 -406 -790 -1090 -679
-1725 93 -538 461 -1172 1056 -1821 l107 -116 -82 -18 c-113 -24 -329 -96
-407 -135 -138 -70 -225 -144 -272 -232 -18 -33 -23 -60 -23 -118 0 -65 4 -82
30 -128 111 -201 485 -352 1025 -413 169 -20 640 -17 805 5 530 68 871 210
980 408 26 45 30 64 30 128 0 64 -4 83 -30 128 -71 129 -249 238 -517 316 -62
18 -143 39 -181 46 -37 8 -66 17 -65 21 2 4 51 61 109 126 590 661 952 1271
1055 1783 126 621 -130 1304 -646 1726 -235 192 -543 333 -838 385 -134 23
-404 33 -522 19z m375 -160 c504 -56 945 -324 1222 -740 134 -203 224 -432
263 -670 19 -117 24 -301 11 -406 -63 -500 -406 -1108 -1019 -1804 -138 -157
-634 -660 -650 -660 -26 0 -426 387 -632 611 -571 620 -938 1241 -1026 1737
-97 552 117 1146 549 1522 357 311 824 461 1282 410z m-548 -4162 c224 -213
339 -308 373 -308 36 0 65 25 314 263 l188 181 107 -18 c258 -44 505 -141 606
-239 86 -83 86 -131 0 -214 -212 -206 -870 -331 -1486 -282 -444 35 -798 140
-944 282 -85 83 -86 131 -1 213 64 62 198 132 339 175 99 31 301 77 344 78 15
1 66 -41 160 -131z"/>
<path d="M2405 4310 c-134 -21 -319 -94 -434 -173 -67 -45 -206 -182 -256
-252 -224 -313 -256 -724 -83 -1069 53 -107 88 -156 176 -248 324 -339 805
-423 1222 -214 99 50 151 88 243 175 97 93 157 172 210 276 104 208 138 419
102 640 -66 410 -372 741 -780 846 -92 23 -305 33 -400 19z m310 -165 c336
-59 606 -310 698 -650 31 -114 31 -316 0 -430 -44 -162 -121 -297 -237 -410
-345 -341 -900 -337 -1241 9 -340 344 -338 894 5 1236 206 206 487 295 775
245z"/>
<path d="M2597 3988 c-9 -7 -129 -163 -267 -347 -164 -220 -250 -343 -250
-358 0 -46 22 -64 170 -138 l150 -75 0 -231 0 -230 25 -24 c26 -27 71 -33 98
-12 9 6 129 162 267 346 164 220 250 343 250 358 0 46 -22 64 -170 138 l-150
75 0 231 0 230 -25 24 c-26 27 -71 33 -98 13z m-20 -599 c6 -8 66 -41 132 -74
67 -32 121 -63 121 -67 0 -5 -60 -88 -132 -185 l-133 -177 -5 136 c-3 81 -10
141 -17 149 -6 8 -66 41 -132 74 -67 32 -121 63 -121 67 0 5 60 88 133 185
l132 177 5 -136 c3 -81 10 -141 17 -149z"/>
</g>
</svg>
