<?xml version="1.0" standalone="no"?>
<!DOCTYPE svg PUBLIC "-//W3C//DTD SVG 20010904//EN"
 "http://www.w3.org/TR/2001/REC-SVG-20010904/DTD/svg10.dtd">
<svg version="1.0" xmlns="http://www.w3.org/2000/svg"
 width="512.000000pt" height="512.000000pt" viewBox="0 0 512.000000 512.000000"
 preserveAspectRatio="xMidYMid meet">

<g transform="translate(0.000000,512.000000) scale(0.100000,-0.100000)"
fill="#000000" stroke="none">
<path d="M1712 5109 c-110 -12 -296 -53 -407 -90 -128 -43 -374 -168 -484
-247 -275 -197 -468 -421 -615 -717 -85 -170 -127 -288 -162 -450 -136 -643
58 -1300 520 -1761 346 -345 791 -540 1281 -561 124 -5 312 6 381 23 19 5 22
0 28 -57 10 -87 58 -269 95 -357 212 -511 705 -859 1256 -888 710 -37 1337
448 1485 1149 109 515 -91 1072 -504 1403 -186 149 -383 241 -638 298 l-28 6
0 90 c0 77 2 90 16 90 47 0 102 28 149 75 98 97 101 222 8 325 -53 59 -108 80
-209 80 l-72 0 -16 78 c-82 389 -306 773 -608 1040 -46 40 -136 109 -201 153
-377 253 -824 365 -1275 318z m493 -173 c394 -72 729 -251 988 -526 232 -247
364 -499 451 -862 l6 -28 -125 0 c-87 0 -136 -4 -160 -14 -34 -15 -35 -15 -41
12 -107 473 -452 864 -914 1035 -441 164 -962 88 -1345 -195 -90 -66 -236
-213 -302 -302 -278 -376 -355 -866 -208 -1313 41 -124 129 -291 215 -405 217
-289 521 -479 890 -555 123 -25 411 -23 535 5 50 11 91 19 91 18 1 0 -7 -41
-16 -91 -10 -49 -21 -125 -25 -167 -8 -88 4 -81 -150 -98 -638 -71 -1294 244
-1648 790 -494 765 -333 1762 378 2337 240 194 571 331 898 373 99 12 385 4
482 -14z m-15 -485 c251 -57 446 -165 631 -350 147 -146 240 -293 307 -481 53
-150 66 -237 66 -420 0 -172 -12 -249 -55 -375 l-21 -60 -99 -49 c-114 -57
-276 -175 -366 -268 -92 -95 -193 -236 -249 -347 l-49 -99 -60 -21 c-126 -43
-203 -55 -375 -55 -183 0 -270 13 -420 66 -188 67 -335 160 -481 307 -186 185
-300 394 -355 651 -26 119 -26 381 0 500 56 259 167 462 355 651 210 211 463
335 761 373 79 10 327 -4 410 -23z m1785 -1116 c16 -15 25 -36 25 -55 0 -19
-9 -40 -25 -55 l-24 -25 -271 0 -271 0 -24 25 c-16 15 -25 36 -25 55 0 19 9
40 25 55 l24 25 271 0 271 0 24 -25z m-549 -295 c11 0 14 -20 14 -90 l0 -90
-27 -6 c-16 -3 -43 -10 -62 -15 -19 -5 -36 -7 -36 -6 -1 1 7 51 19 110 l21
109 29 -6 c16 -3 35 -6 42 -6z m334 -80 l0 -80 -80 0 -80 0 0 80 0 80 80 0 80
0 0 -80z m190 -269 c249 -57 449 -168 631 -350 186 -185 300 -394 355 -651 26
-119 26 -381 0 -500 -55 -257 -169 -466 -355 -651 -185 -186 -394 -299 -651
-355 -126 -27 -392 -25 -516 4 -259 61 -452 167 -635 351 -186 185 -300 394
-355 651 -26 119 -26 381 0 500 36 168 104 328 199 470 64 96 241 273 337 337
173 116 372 190 580 217 79 10 327 -4 410 -23z"/>
<path d="M1957 3908 c-9 -7 -129 -163 -267 -347 -164 -220 -250 -343 -250
-358 0 -46 22 -64 170 -138 l150 -75 0 -231 0 -230 25 -24 c26 -27 71 -33 98
-13 9 7 129 163 267 347 164 220 250 343 250 358 0 46 -22 64 -170 138 l-150
75 0 231 0 230 -25 24 c-26 27 -71 33 -98 13z m-20 -599 c6 -8 66 -41 132 -74
67 -32 121 -63 121 -67 0 -5 -60 -88 -132 -185 l-133 -177 -5 136 c-3 81 -10
141 -17 149 -6 8 -66 41 -132 74 -67 32 -121 63 -121 67 0 5 60 88 133 185
l132 177 5 -136 c3 -81 10 -141 17 -149z"/>
<path d="M3500 2545 c-351 -56 -660 -285 -824 -612 -213 -425 -126 -943 214
-1283 334 -333 838 -423 1259 -224 173 82 301 183 413 328 347 449 308 1075
-92 1476 -257 256 -611 371 -970 315z m411 -174 c179 -46 319 -127 449 -260
129 -130 212 -278 257 -457 24 -95 24 -333 0 -428 -46 -185 -125 -324 -262
-461 -137 -137 -276 -216 -461 -262 -98 -24 -324 -24 -424 0 -364 88 -636 359
-727 723 -24 95 -24 333 0 428 46 182 128 328 261 462 158 157 305 231 556
278 59 11 277 -3 351 -23z"/>
<path d="M3631 2143 c-16 -14 -37 -71 -80 -228 -68 -242 -111 -428 -111 -475
0 -124 116 -240 240 -240 97 0 204 81 229 173 18 64 11 115 -48 347 -106 413
-117 440 -181 440 -15 0 -37 -8 -49 -17z m93 -532 c20 -82 36 -161 36 -176 0
-36 -41 -75 -80 -75 -39 0 -80 39 -80 75 0 39 70 325 80 325 5 0 24 -67 44
-149z"/>
</g>
</svg>
